<svg xmlns="http://www.w3.org/2000/svg" width="49" height="47" fill="none"><g clip-path="url(#a)"><path fill="#006FFF" d="M18.327 19.926a16.18 16.18 0 0 0 3.87 1.087c.433-.198 1.06-.29 1.128-1.125.076-.762-.193-1.466-.341-2.197a6.6 6.6 0 0 1 .007-2.222c.126-.884.495-1.67.977-2.39a5.093 5.093 0 0 1 1.553-1.728c-.11-.18-.22-.364-.328-.549a5.854 5.854 0 0 1-.441-.807c-.718-1.404-1.24-2.919-1.292-4.493-.061-.968-.043-1.96.062-2.934-.039-.213-.167-.451-.233-.587-.164-.307-.572-.395-.841-.597-.149-.02-.305-.033-.443-.067a8.25 8.25 0 0 0-1.395.38c-.822.107-1.366.75-2.014 1.21-.395.297-.802.576-1.192.883-3.057 3.017-4.472 7.56-3.844 11.79.664 2.247 2.665 3.588 4.764 4.349l.003-.003Z"/><path fill="#FFCD85" d="M40.367 31.41s-.012-.008-.02-.01c-.851-.518-1.807-.79-2.763-1.038-1.702-.474-3.396-.974-5.126-1.322-1.286-.375-2.624-.705-3.964-.89-2.245-.182-4.508-.123-6.75.044-2.187.059-4.33.108-6.446.64-3.45.505-6.812 1.569-9.785 3.391-1.218.73-2.102 1.828-2.896 2.983C1.504 36.874.92 38.801.827 40.793c-.017 1.445-.51 2.919.24 4.213.868.533 1.929.377 2.9.408 2.348.046 4.698-.139 7.038-.246 1.794-.036 3.583.107 5.377.076 2.26.031 4.485-.161 6.727-.366 1.812-.126 3.637-.07 5.451-.026 2.527.049 5.054-.059 7.579-.012 2.965.245 6.025.643 8.952-.052.635-2.747.428-5.771-.528-8.414-.844-2.03-2.404-3.71-4.193-4.961l-.003-.003Z"/><path fill="#000" d="M13.222 15.83c.11.667.261 1.356.638 1.928.717 1.217 1.994 1.904 3.18 2.578 2.192 1.433 4.731 2.358 7.36 2.445 2.118.054 4.22-.615 6.093-1.566 2.145-1.222 3.667-3.331 4.549-5.6.505-1.43.605-2.962.625-4.467.03-1.227 0-2.478-.413-3.647-.422-1.42-1.02-2.806-2.024-3.918-.743-.915-1.638-1.784-2.707-2.302-1.291-.653-2.711-.838-4.12-1.066C24.938-.164 23.418.077 21.93.06c-.374.059-.728.228-1.056.413-.76.238-1.499.6-2.158 1.058-.476.32-1.007.548-1.504.835-1.14.751-1.902 1.969-2.54 3.153-1.535 2.58-2.212 5.643-1.768 8.621.051.572.138 1.14.315 1.69l.003.002ZM25.705 2.78c.095-.415.213-.83.38-1.224.02-.034.033-.07.046-.105 3.99.174 6.197 1.988 7.752 5.617.813 2.789.984 5.908-.307 8.583-1.287 2.891-3.598 4.572-6.461 5.231-.018-.023-.034-.046-.054-.067-.533-.507-.997-.976-1.36-1.645a5.763 5.763 0 0 1-.588-2.601v-.098c.008-.292.036-.581.085-.873 0-.098.01-.19.02-.285.026-.164.06-.325.093-.487.187-.664.592-1.258 1.06-1.776a2.68 2.68 0 0 1 .88-.69c.25-.12.543-.212.66-.492.2-.66-.512-1.073-.883-1.568-.177-.31-.346-.625-.508-.943a11.034 11.034 0 0 1-.379-1.13c-.615-1.75-.802-3.619-.443-5.446h.007ZM18.2 3.789c.39-.305.797-.587 1.191-.884.646-.46 1.192-1.102 2.015-1.21.456-.164.92-.292 1.394-.38.138.037.295.047.443.067.272.203.677.29.841.597.067.136.195.375.233.587a17.282 17.282 0 0 0-.061 2.935c.051 1.573.574 3.088 1.291 4.493.126.279.272.55.441.807.108.184.216.369.328.548a5.094 5.094 0 0 0-1.553 1.728c-.482.72-.85 1.507-.976 2.39a6.6 6.6 0 0 0-.008 2.223c.149.733.418 1.435.34 2.196-.066.836-.696.928-1.127 1.125a16.497 16.497 0 0 1-3.87-1.087c-2.101-.76-4.103-2.101-4.764-4.349-.628-4.23.787-8.775 3.844-11.789l-.002.003ZM48.035 42.805c-.079-2.817-.135-5.693-1.506-8.245a22.453 22.453 0 0 0-1.877-2.384A4.645 4.645 0 0 0 43 30.913c-.335-.167-.663-.349-.994-.523a.715.715 0 0 1-.072-.051c-1.002-.73-2.334-1.15-3.531-1.52-1.32-.4-2.632-.835-3.996-1.056a33.986 33.986 0 0 0-5.177-.812c-1.622-.17-3.265-.172-4.897-.077-1.774.054-3.558-.044-5.323.123-2.297.267-4.508.928-6.746 1.481a17.65 17.65 0 0 0-4.73 1.69c-2.271 1.094-4.496 2.634-5.821 4.838-1.353 2.33-1.56 5.138-1.663 7.778-.02.818-.023 1.635-.031 2.45-.059.659.015 1.28.787 1.29 1.176-.014 2.334.284 3.516.227 2.78.016 5.559-.13 8.34-.035 1.678-.023 3.377-.203 5.087-.106 1.122.118 2.24.262 3.367.323h-.012c2.283.144 4.574 0 6.858-.04 2.355-.05 4.708-.016 7.063-.034 3.793-.046 7.573-.436 11.366-.144.461-.05 1.05.131 1.369-.305.176-.263.32-.627.2-.935-.039-.887.122-1.781.076-2.675v.005Zm-1.855 1.98c-2.927.695-5.987.298-8.952.052-2.525-.046-5.052.061-7.578.013-1.815-.044-3.64-.1-5.452.025-2.242.205-4.467.398-6.727.367-1.794.03-3.583-.113-5.377-.077-2.34.108-4.69.292-7.037.246-.972-.03-2.033.123-2.902-.407-.75-1.295-.256-2.768-.238-4.214.095-1.991.68-3.918 1.789-5.584.794-1.156 1.679-2.253 2.896-2.983 2.973-1.82 6.335-2.886 9.785-3.391 2.117-.53 4.26-.582 6.445-.64 2.243-.17 4.506-.226 6.75-.044 1.339.187 2.68.515 3.966.889 1.732.351 3.426.848 5.125 1.322.956.249 1.912.52 2.763 1.038.008.003.013.008.02.01 1.79 1.249 3.35 2.933 4.193 4.962.956 2.643 1.161 5.667.528 8.414l.003.003Z"/></g><defs><clipPath id="a"><path fill="#fff" d="M0 0h48.043v47H0z"/></clipPath></defs></svg>