<svg xmlns="http://www.w3.org/2000/svg" width="22" height="29" fill="none"><g clip-path="url(#a)"><path fill="#FFCD85" d="M19.837 12.74c-.396-.744-.75-1.513-1.2-2.226-.434-.624-.813-1.283-1.236-1.91-.05-.026-.1-.047-.15-.065-.168-.025-.339-.002-.509 0-.372.51-.98.829-1.52 1.137-.7.491-1.559.477-2.377.445-1.112-.032-2.251-.426-3.09-1.169-.336-.305-.551-.706-.69-1.134-.448-.986-.423-2.08-.43-3.142-.045-.883.17-1.766.008-2.638-.07-.061-.173-.016-.257-.03-.068-.006-.134-.023-.202-.029-.35-.04-.533.387-.732.61-.246.404-.582.8-.939 1.086-.573.53-1.133 1.072-1.617 1.688-.433.465-.813.904-1.104 1.462-.468.913-.745 1.914-1.291 2.788-.38.875-.763 1.756-.99 2.686-.211.791-.31 1.535-.448 2.328-.073.774-.118 1.53-.092 2.293.045.487.07.976.095 1.464.066.847.133 1.702.403 2.514.478 1.21.979 2.436 1.779 3.47.285.442.69.78 1.084 1.116.552.5 1.21.868 1.872 1.203.086.002.174.015.259.027.164-.085.363-.205.441-.379.075-.413-.125-.807-.239-1.192a8.613 8.613 0 0 1-.234-1.475c-.243-1.242-.046-2.47.313-3.668.416-1.4.946-2.832 1.908-3.94.5-.618 1.004-1.273 1.67-1.714.43-.157.463.289.552.58.147.381.403.694.658 1.003.351.387.664.777 1.031 1.142.228.183.446.378.65.587a11.063 11.063 0 0 1 1.666 2.007c.857 1.28 1.309 4.213.75 5.657-.079.209-.178.408-.284.604-.067.389-.002.744.377 1.027.256.257.615.37.972.318.05-.013.103-.025.156-.033.345-.19.675-.416.982-.683.873-.808 1.742-1.648 2.263-2.735.448-.974.65-2.04.865-3.08.252-1.49.338-2.989.14-4.467-.195-1.263-.733-2.393-1.263-3.534Z"/><path fill="#0D0C22" d="M20.528 12.475a19.796 19.796 0 0 0-1.357-2.795c-.517-.872-1.129-1.685-1.709-2.517-.153-.202-.29-.418-.454-.613a.306.306 0 0 0-.268-.103.297.297 0 0 0-.244.22c-.038.18-.005.37-.049.551-.072.369-.268.693-.5.981-.458.513-1.137.839-1.79 1.047-.543.195-1.15.196-1.715.118-.745-.19-1.52-.468-2.034-1.072-1.28-1.61-1.198-3.865-.894-5.8.022-.102.046-.204.07-.305 0-.003.003-.004.003-.007a.348.348 0 0 0 .016-.062c.154-.601.363-1.188.505-1.79.048-.39-.512-.452-.565-.075-.519.25-.952.634-1.45.92-.67.448-1.255 1.006-1.85 1.548-1.89 1.673-3.338 3.781-4.379 6.087-.282.637-.629 1.244-.838 1.913-.335.974-.564 1.952-.754 2.97-.426 1.97-.319 4.055.095 6.025.378 1.623.999 3.29 2.053 4.605.64.853 1.411 1.587 2.205 2.292.343.29.741.497 1.11.752.252.173.531.376.834.537 1.421.665 2.998 1 4.558 1.09 2.347.083 5.885-.486 7.603-2.212 2.542-2.511 3.475-5.459 3.23-9.007-.104-1.85-.764-3.593-1.434-5.3l.002.002ZM14.21 26.61c-.427.44-.92.877-1.506 1.082-.54.145-1.099.067-1.65.094-.535.039-1.059-.14-1.496-.445a3.777 3.777 0 0 1-1.213-.94c-.323-.388-.679-.758-.898-1.222-.258-.483-.282-1.096-.336-1.64-.028-.466-.045-.94-.022-1.409.15-1.704.53-3.456 1.48-4.893.126-.1.231-.228.37-.31a3.57 3.57 0 0 1 .552-.27c.396-.24.857-.286 1.293-.135.135.06.277.107.41.175.17.202.354.397.536.587.818.92 1.747 1.767 2.275 2.905.91 1.939 1.749 4.591.202 6.42h.003Zm6.75-5.867c-.216 1.037-.417 2.105-.865 3.08-.521 1.085-1.39 1.926-2.263 2.734a5.697 5.697 0 0 1-.982.683c-.053.008-.105.02-.156.034a1.14 1.14 0 0 1-.972-.319c-.378-.282-.444-.637-.377-1.027.106-.195.205-.395.285-.603.558-1.445.105-4.377-.75-5.657a10.97 10.97 0 0 0-1.666-2.008 7.472 7.472 0 0 0-.65-.587c-.368-.364-.68-.754-1.032-1.142-.255-.31-.51-.621-.659-1.003-.088-.29-.121-.737-.55-.58-.667.441-1.17 1.096-1.67 1.715-.963 1.107-1.493 2.54-1.91 3.94-.358 1.197-.555 2.425-.312 3.667.037.499.113.995.234 1.476.114.383.314.778.24 1.191-.08.174-.278.295-.442.379-.085-.012-.171-.024-.259-.027-.662-.335-1.32-.703-1.872-1.203-.393-.335-.8-.674-1.084-1.116-.8-1.034-1.301-2.26-1.779-3.47-.27-.81-.338-1.667-.403-2.514-.026-.488-.05-.977-.095-1.464-.026-.763.019-1.518.092-2.292.137-.793.237-1.539.448-2.329.227-.93.61-1.812.99-2.685.545-.875.823-1.876 1.29-2.79.292-.557.673-.995 1.105-1.46.483-.616 1.044-1.16 1.617-1.689.357-.285.692-.68.94-1.085.198-.224.38-.65.73-.61.07.006.136.023.203.028.085.014.186-.03.257.03.161.873-.053 1.756-.007 2.639.007 1.06-.018 2.155.429 3.141.139.43.355.83.69 1.135.839.742 1.978 1.135 3.09 1.168.817.032 1.676.046 2.376-.445.54-.308 1.15-.628 1.521-1.136.17-.004.34-.026.51 0 .049.017.1.038.149.063.424.627.802 1.286 1.236 1.91.45.714.804 1.484 1.2 2.227.53 1.142 1.068 2.271 1.263 3.535.197 1.478.111 2.976-.14 4.467Z"/></g><defs><clipPath id="a"><path fill="#fff" d="M0 0h22v29H0z"/></clipPath></defs></svg>