<svg xmlns="http://www.w3.org/2000/svg" width="47" height="47" fill="none"><g clip-path="url(#a)"><path fill="#FFCD85" d="M34.613 5.328c-.778-.516-1.654-.85-2.51-1.206-.884-.384-1.783-.741-2.727-.954-1.286-.3-2.523-.78-3.809-1.073-1.296-.208-2.61-.353-3.925-.35-1.464-.104-3.004.34-4.378.648-1.198.22-2.329.5-3.487.772-.954.299-1.854 1.022-2.691 1.504a43.35 43.35 0 0 0-4.483 3.505c-2.017 1.566-3.606 3.713-4.578 6.07C1.333 16.381.65 18.546.498 20.804c-.184 3.352-.2 6.777.845 10.005 1.242 3.194 3.137 6.105 5.595 8.495.627.664 1.244 1.304 1.877 1.862.782.666 1.643 1.159 2.46 1.76 1.527 1.027 3.32 1.545 5.086 1.986 1.491.451 2.98.83 4.53.71 5.177-.054 11.565-2.146 15.703-5.252 2.053-1.735 3.575-3.964 4.796-6.334 1.827-3.297 2.942-6.911 2.976-10.676.264-3.707-1.478-7.075-3.264-10.188-1.053-1.781-2.069-3.588-3.412-5.154-.928-.998-1.983-1.88-3.075-2.697l-.002.006ZM23.169 25.936a71.504 71.504 0 0 1-.3 6.007c-.096.915.192 4.005-1.465 3.194-.9-.85-.583-3.376-.643-4.581.088-3.039.168-6.085.16-9.123.014-.236.161-.467.395-.54.223-.23.575-.233.855-.124.729.192.861.785.941 1.449.148 1.232.114 2.481.057 3.715v.003Zm-.176-10.153c-.417.379-1.019.713-1.59.508-.556-.238-1.08-.767-.899-1.42.125-.723.762-1.457 1.548-1.367.995.164 1.677 1.476.941 2.28Z"/><path fill="#000" d="M34.997 3.36C31.96 1.649 28.572.485 25.1.124c-2.657-.233-5.47-.215-7.995.713-.957.532-2.038.864-3.026 1.385-1.548.788-3.108 1.623-4.488 2.69-1.293.74-2.372 1.689-3.414 2.752-1.115 1.11-2.185 2.304-2.963 3.678C1.939 13.77.86 16.31.392 19.027c-.496 2.997-.566 6.222.067 9.216.661 3.057 1.786 6.087 3.557 8.69.817 1.16 1.618 2.334 2.582 3.376 1.042 1 2.105 1.99 3.287 2.83 3.451 2.34 7.635 3.55 11.78 3.742a27.823 27.823 0 0 0 9.134-1.582c1.82-.69 3.695-1.306 5.398-2.258 2.183-1.369 4.135-3.121 5.833-5.053 1.649-1.931 2.85-4.228 3.682-6.621 3.103-7.967.298-17.217-5.175-23.468-1.641-1.742-3.435-3.36-5.54-4.534V3.36Zm10.637 20.006c-.034 3.765-1.149 7.379-2.976 10.676-1.221 2.367-2.743 4.6-4.797 6.334-4.14 3.106-10.525 5.198-15.703 5.253-1.55.119-3.038-.26-4.529-.71-1.765-.444-3.562-.963-5.086-1.987-.817-.601-1.678-1.096-2.46-1.76-.633-.557-1.25-1.198-1.878-1.861a23.905 23.905 0 0 1-5.594-8.496c-1.042-3.228-1.027-6.653-.845-10.005.153-2.258.834-4.423 1.527-6.561.972-2.357 2.564-4.504 4.578-6.07a42.987 42.987 0 0 1 4.482-3.505c.838-.484 1.738-1.205 2.691-1.503 1.162-.273 2.29-.553 3.488-.773 1.373-.308 2.916-.752 4.378-.648 1.315-.003 2.63.14 3.925.35 1.286.293 2.523.773 3.809 1.073.944.213 1.84.57 2.727.954.858.355 1.734.69 2.51 1.206 1.091.816 2.146 1.695 3.074 2.696 1.343 1.569 2.362 3.373 3.412 5.154 1.787 3.114 3.529 6.484 3.264 10.189l.003-.006Z"/><path fill="#000" d="M23.439 20.769c-.283-.11-.633-.106-.855.124-.234.073-.379.3-.395.54.008 3.038-.072 6.082-.16 9.123.06 1.205-.257 3.73.643 4.58 1.656.812 1.369-2.278 1.464-3.193.18-2 .29-4 .301-6.007.057-1.237.093-2.484-.057-3.715-.078-.664-.212-1.258-.941-1.45v-.002ZM23.317 13.505c-.785-.091-1.42.642-1.547 1.366-.18.653.342 1.184.9 1.42.57.205 1.17-.13 1.588-.508.734-.803.052-2.118-.94-2.278Z"/></g><defs><clipPath id="a"><path fill="#fff" d="M0 0h47v46.878H0z"/></clipPath></defs></svg>