<svg xmlns="http://www.w3.org/2000/svg" width="28" height="28" fill="none"><g clip-path="url(#a)"><path fill="#0D75FF" d="m13.792 12.887-.002.002.002-.002Z"/><path fill="#FFCD85" d="M27.008 11.585c-.043-1.64-.2-3.267-.251-4.903-.154-1.814.103-3.663-.153-5.461-2.41-.109-4.818-.078-7.226.037-2.427-.002-4.855-.054-7.284-.038-1.68-.011-3.359.03-5.04.053-1.107-.025-2.234.191-3.325-.07-.17.812-.041 1.637-.078 2.456-.022.978-.079 1.955-.084 2.934a92.707 92.707 0 0 0 .095 6.999c.081 1.357.276 2.789.362 4.122.119 1.352.01 2.708.037 4.064 0 .638-.02 1.31.268 1.896.06.18.318.132.456.16 1.199.07 2.399 0 3.598-.024 1.347.065 2.676.133 4.023.138.918.006 1.834.125 2.752.076 2.418-.069 4.84.024 7.258-.03 1.394-.045 2.785-.168 4.182-.128.421.003.355-1.975.384-2.342.058-1.469-.071-2.936-.042-4.405a102.3 102.3 0 0 0 .067-5.533l.001-.002Zm-12.51.097h-.002.002Zm7.996 1.144c-.239.203-.533.26-.833.26a3.18 3.18 0 0 1-.218-.009c-.464 0-.93-.005-1.396-.008-.409.017-.816.034-1.217.044a6.833 6.833 0 0 0-1.032.086.523.523 0 0 0-.108-.022.905.905 0 0 0-.1-.006c-.025 0-.05.004-.074.004h.025c-.032 0-.063 0-.095.005a.509.509 0 0 0-.046.01c-.007 0-.016 0-.024.002l-.136-.001c-.06 0-.114.01-.172.02-.029.004-.058.007-.085.013a.894.894 0 0 0-.098.027c-.05.016-.1.037-.151.056l-.005.002h-.004a.414.414 0 0 0-.105.052c-.026.017-.05.037-.074.056a.789.789 0 0 0-.102.1l-.057.07c-.041.05-.073.106-.106.163-.034.06-.05.13-.071.196a.642.642 0 0 0-.03.119v.008a.82.82 0 0 0 0 .124l.006.085-.02.078a1.453 1.453 0 0 0-.032.178c0 .006-.002.01-.003.017a1.575 1.575 0 0 0-.011.186c0 .284.046.57.102.847l-.005-.028.019.094-.014 1.213c-.003.36-.02.718-.034 1.076-.014.242 0 .66-.066 1.008 0 .087.003.173.003.26-.004.262-.23.376-.425.338-.024.004-.047.009-.073.009a.693.693 0 0 1-.228-.044c-.563-.307-.434-2.989-.458-3.673-.01-.41-.004-.818.013-1.228a.258.258 0 0 0 .029-.08c0-.009.003-.018.003-.026a.247.247 0 0 0 .003-.031v-.021c0-.01 0-.021-.003-.03a.728.728 0 0 0-.01-.053v-.017c0-.02 0-.04.002-.06a.736.736 0 0 0 0-.105v-.024a3.662 3.662 0 0 0-.008-.054v-.021l-.005-.042v-.014c.002-.022.004-.044.003-.066 0-.018-.003-.034-.005-.051 0-.036.002-.072-.004-.107a.78.78 0 0 0-.027-.107c-.02-.06-.044-.12-.069-.178v.003-.002l.001.003c-.02-.05-.035-.1-.063-.147l-.056-.098a.442.442 0 0 0-.04-.076.74.74 0 0 0-.1-.113 1.943 1.943 0 0 0-.096-.082.573.573 0 0 0-.29-.123l-.06-.009-.032-.006a.371.371 0 0 0-.074-.008h-.014l-.066.005H13.964l-.066.004a1.362 1.362 0 0 0-.098.007c-.008 0-.014.003-.021.003h-.008.002-.007l-.012.001H13.681c-.013 0-.027.004-.039.006-.004 0-.006 0-.01.002-.03.002-.058.003-.086.007h-.001l-.037-.014c-.287-.012-.576-.024-.863-.038-.666-.053-1.327.06-1.99.111-.269.027-.535.013-.802 0-.22-.01-.441-.023-.66-.01-.24.01-.498.073-.721-.043-.27-.154-.206-.523.012-.697.455-.387 1.604-.372 2.44-.358.215.003.411.007.568.003.548.045 1.098.057 1.647.06a4.21 4.21 0 0 0 .316-.077h.002c.02 0 .04-.002.058-.004.009 0 .017 0 .026-.002.005 0 .032-.001.012-.001h.015c.106-.009.212-.021.317-.031.05-.004.1-.006.15-.015.047-.009.092-.02.14-.03a3.59 3.59 0 0 0 .32-.079h.017c.02 0 .04-.003.06-.005h.011-.002a1.721 1.721 0 0 0 .16-.036l.04-.01a.501.501 0 0 0 .12-.055.385.385 0 0 0 .101-.122.836.836 0 0 0 .084-.235 1.686 1.686 0 0 0 .035-.3c0-.022 0-.044.002-.068v.003-.003l.015-.255.006-.148a2.433 2.433 0 0 0-.047-.473c0 .006.003.013.004.02a2.905 2.905 0 0 0-.02-.113c.009-.106.02-.21.036-.308l.001-.023a.378.378 0 0 0-.002-.038c-.016-1.185-.276-2.362.042-3.508.173-.302.626-.166.706.141.017.083.032.174.048.248.175 1.12.24 2.252.27 3.386a2.495 2.495 0 0 1-.011.133l.003-.027a.553.553 0 0 1-.006.047l.004-.027-.011.097a2.823 2.823 0 0 0-.023.278c0 .109.003.216.01.324.008.104.016.207.041.308v.003c.017.076.043.15.075.22.032.073.06.149.096.22a.4.4 0 0 0 .145.163c.044.027.092.041.14.06.06.026.116.053.175.076.076.03.156.04.236.05.072.01.142.03.214.038a.842.842 0 0 0 .11.007c.736.285 1.578.258 2.35.316.147.011.294.02.44.026.28-.016.56-.027.84-.022l.986.001c.215-.004.468-.002.594.201.114.177.025.41-.098.557l.002.002Z"/><path fill="#0D0C22" d="M27.856 13.259c-.068-1.6-.015-3.203-.075-4.802-.017-1.752.037-3.506-.085-5.254-.076-.883.046-1.803-.116-2.684-.035-.165-.085-.363-.247-.45-.129-.063-.288-.088-.412-.011C25.874.046 24.825-.02 23.78.042c-1.965.102-3.91.17-5.878-.042a97.391 97.391 0 0 1-4.843.075c-1.475.103-2.951.088-4.428.083-.952.046-1.904.083-2.855.062C5.2.207 4.627.212 4.054.212c-.609-.045-1.32.177-1.252.914.016 1.291-.196 2.57-.192 3.863-.032 1.724.147 3.443.175 5.167.08 2.037.036 4.08.105 6.118.157 2.33.203 4.647.393 6.975-.003.116-.006.231-.014.347-.086.301-.197.701.07.945.133.116.342.114.51.134.38.047.76.063 1.144.055.71-.006 1.42.013 2.13.03 1.358-.003 2.715.076 4.07.121 2.705-.053 5.41-.037 8.114.073 2.062.03 4.12-.204 6.182-.192.467.072.942.018 1.408.09.473.198.82-.02.965-.482.23-.837.092-1.728.127-2.588.015-2.84.05-5.686-.132-8.522l-.001-.001Zm-.873 8.263c-.03.367.036 2.345-.384 2.342-1.396-.04-2.787.083-4.182.127-2.418.055-4.84-.038-7.258.031-.918.048-1.834-.07-2.752-.076-1.346-.007-2.676-.075-4.023-.139-1.199.024-2.399.094-3.598.025-.138-.029-.397.02-.456-.16-.288-.587-.269-1.259-.267-1.897-.027-1.354.082-2.71-.037-4.063-.087-1.334-.281-2.766-.363-4.123A92.695 92.695 0 0 1 3.57 6.59c.005-.979.061-1.955.083-2.933.037-.82-.092-1.645.078-2.456 1.09.26 2.218.043 3.326.07 1.68-.024 3.359-.065 5.04-.054 2.427-.016 4.855.036 7.283.039 2.408-.115 4.817-.146 7.226-.037.256 1.797 0 3.647.153 5.46.052 1.636.208 3.265.251 4.903.029 1.847.005 3.687-.066 5.534-.03 1.469.1 2.936.042 4.405h-.002Z"/><path fill="#0D0C22" d="M21.999 12.067c-.329-.002-.658-.001-.987-.001-.281-.005-.56.006-.84.022a13.25 13.25 0 0 1-.44-.026c-.772-.058-1.613-.03-2.349-.316a.845.845 0 0 1-.11-.007c-.072-.009-.143-.027-.214-.037a.968.968 0 0 1-.237-.05c-.059-.024-.117-.051-.175-.077-.048-.019-.096-.031-.14-.06a.409.409 0 0 1-.144-.163c-.037-.071-.064-.147-.096-.22a1.197 1.197 0 0 1-.075-.22v-.003a2.18 2.18 0 0 1-.041-.309 4.047 4.047 0 0 1-.011-.323V10.291v-.014c.001-.058.006-.117.012-.175l.011-.102.011-.097-.003.027a.726.726 0 0 1 .006-.047c0 .009-.003.019-.004.027.005-.044.009-.089.011-.133-.03-1.133-.095-2.266-.27-3.385-.016-.074-.03-.166-.048-.249-.08-.307-.532-.443-.706-.14-.318 1.145-.058 2.32-.042 3.507l.003.039c0 .007 0 .014-.002.022a3.924 3.924 0 0 0-.035.308l.02.113-.004-.02c.027.156.049.314.046.473 0 .05-.003.099-.006.148l-.014.256v.002-.002l-.003.067-.002.052a1.53 1.53 0 0 1-.032.248.83.83 0 0 1-.084.235.39.39 0 0 1-.101.122.519.519 0 0 1-.12.054l-.04.012a1.669 1.669 0 0 1-.16.036h.002-.012l-.06.005h-.016c-.107.03-.213.058-.321.079l-.14.03c-.05.008-.1.01-.15.014-.106.01-.212.022-.317.03h-.014c.018 0-.008.002-.013.002a.176.176 0 0 0-.025.003l-.058.003h-.003a4.072 4.072 0 0 1-.315.077 22.9 22.9 0 0 1-1.648-.06c-.156.003-.352 0-.568-.003-.837-.015-1.986-.03-2.44.358-.219.173-.282.542-.012.697.223.117.482.053.72.042.221-.01.442 0 .661.011.268.014.534.029.803 0 .662-.051 1.323-.162 1.99-.11l.862.038.037.013h.001l.087-.007.01-.001.039-.007a.418.418 0 0 1 .069 0h.022-.001.007c.008 0 .014-.003.021-.003h-.005.005c.034-.004.066-.006.099-.008.022 0 .043-.002.065-.003h.01a1.3 1.3 0 0 1 .065-.005h.015c.025 0 .05.002.074.007l.032.006.06.009a.564.564 0 0 1 .29.123c.032.026.065.053.095.082a.8.8 0 0 1 .1.114c.017.023.028.049.04.075.019.033.039.065.057.098.027.047.042.098.063.147l-.001-.003v.002-.002c.024.059.048.117.069.178a.78.78 0 0 1 .027.106c.006.036.003.071.003.107l.005.05c0 .024 0 .045-.002.067v.014c0 .014.002.028.004.042v.021l.008.054v.025a.718.718 0 0 1 0 .104l-.001.06v.018l.01.051.002.031v.021c0 .01 0 .021-.002.031 0 .009-.003.017-.004.026a.295.295 0 0 1-.028.08c-.018.409-.024.817-.014 1.229.026.682-.103 3.365.459 3.673.085.03.16.043.228.043.025 0 .049-.005.072-.009.195.038.422-.076.425-.338l-.002-.26c.065-.349.05-.766.065-1.008.013-.358.031-.717.035-1.075.005-.405.01-.81.013-1.214l-.018-.094.005.029a4.265 4.265 0 0 1-.103-.847c0-.063.004-.125.012-.187 0-.006 0-.01.002-.017.007-.06.018-.12.033-.178l.02-.078c-.004-.028-.005-.056-.006-.085a.586.586 0 0 1 0-.123v-.009a.642.642 0 0 1 .03-.119c.02-.065.036-.135.07-.196a1 1 0 0 1 .107-.163l.057-.069a.788.788 0 0 1 .102-.101l.074-.056a.412.412 0 0 1 .104-.052h.004a.01.01 0 0 0 .005-.002c.052-.018.101-.04.152-.056.032-.01.064-.02.097-.027l.085-.013c.058-.01.113-.02.173-.02l.135.001a.156.156 0 0 0 .025-.002c.015-.003.03-.008.045-.01.032-.005.063-.005.095-.005h-.024c.024 0 .049-.004.074-.004a.878.878 0 0 1 .208.029c.335-.06.687-.077 1.031-.087.4-.011.808-.027 1.218-.044.465.003.93.008 1.396.008.072.005.145.009.218.009.3 0 .594-.057.833-.26.123-.147.213-.38.098-.556-.127-.205-.38-.205-.593-.201l-.003-.003Zm-8.21.82h.002-.001Zm.002 0h.006-.005Z"/><path fill="#0D0C22" d="m24.965 26.97-.009-.005a1.823 1.823 0 0 0-.239-.058.327.327 0 0 0-.292-.02c-.213-.018-.429-.025-.655-.054-1.04-.107-2.087-.027-3.128-.087-1.814-.051-3.627-.076-5.444-.06-.744.014-1.486.006-2.229-.02-1.4-.033-2.798.07-4.2.051-.994.002-1.92.014-2.925-.089-.64-.016-1.272-.055-1.898-.197-.873-.145-1.77-.258-2.131-1.198-.29-.61-.356-1.292-.419-1.958a27.995 27.995 0 0 1-.175-3.214c.02-2.713.007-5.427.006-8.14-.032-2.372.03-4.743.026-7.113-.002-.334-.004-.67.016-1.003.043-.33.078-.86-.373-.885a.314.314 0 0 0-.192.058.498.498 0 0 0-.512.404C.064 3.873.1 4.39.064 4.909-.027 6.085-.01 7.27.049 8.449c.005 1.925.119 3.866.15 5.799.05 1.223-.062 2.449-.119 3.674-.007.945-.012 1.885.01 2.83.017 1.334-.136 2.72.405 3.976.127.314.286.613.461.901.545.82 1.476 1.317 2.371 1.668.907.334 1.883.357 2.832.47 2.01.19 4.02.22 6.038.226 1.39.027 2.77-.08 4.162-.072 1.66.05 3.327-.06 5-.06.48-.01.962-.019 1.443-.008.686.04 1.376.158 2.062.053.339-.027.627-.405.416-.717a.602.602 0 0 0-.313-.221l-.002.001Z"/></g><defs><clipPath id="a"><path fill="#fff" d="M0 0h28v28H0z"/></clipPath></defs></svg>