<svg xmlns="http://www.w3.org/2000/svg" width="47" height="47" fill="none"><g clip-path="url(#a)"><path fill="#FFCD85" d="M12.03 28.845c-.528-.077-.917.34-.943.846.198.265.452.485.717.678.471-.324.74-1.168.228-1.524h-.003Z"/><path fill="#006FFF" d="M17.828 16.527c.482.377 1.135.407 1.684.653 1.135.12 2.062.45 3.221.45 1.154-.15 2.348.005 3.456-.431.61-.372.782-1.084.93-1.735.246-2.803.548-5.617.414-8.433-.13-1.339-.283-2.688-.578-4.003-.466-.787-1.156-1.622-2.152-1.606-.458-.032-.91-.166-1.366-.166a.623.623 0 0 1-.522.101c-.736-.176-1.622.196-2.367.322-.41.117-.83.032-1.245.024-.353.104-.706.294-.929.594a6.853 6.853 0 0 0-.465 2.731c-.049.916-.113 1.829-.153 2.747a70.181 70.181 0 0 1-.188 2.704c.011 1.722.1 3.44.102 5.162.04.294.043.616.16.889l-.002-.003Z"/><path fill="#FFCD85" d="M44.714 18.966a35.534 35.534 0 0 0-.327-2.653c-.533-2.943-5.794-3.186-8.18-3.582-1.986-.241-4-.726-5.996-.316-.509.12-1.06.206-1.497.514a.639.639 0 0 1-.292.235 76.202 76.202 0 0 1-.23 2.343c-.086 1.494-.619 2.73-2.225 3.028-.517.158-1.047.19-1.582.235-.597.1-1.194.18-1.794.067-.948-.018-1.928.03-2.851-.216-1.018-.145-2.23-.241-2.932-1.085-.485-.535-.53-1.29-.699-1.96a9.49 9.49 0 0 1-.166-1.37.914.914 0 0 1-.085-.255c-.758-1.475-2.694-1.33-4.107-1.263-1.492.09-2.994.064-4.466.35a49.54 49.54 0 0 1-2.739.257c-.597.008-1.205.038-1.775.23-.83.306-1.756.633-2.043 1.537a5.166 5.166 0 0 0-.34 1.564l-.024.693c-.003.678.04 1.36.014 2.038a42.7 42.7 0 0 0-.027 2.551c.059 1.492.147 2.983.16 4.477.03.848.054 1.697.049 2.548-.1 1.607.04 3.213.026 4.82-.01.439-.032.878-.045 1.317v1.336c.005.134.008.265.016.399.136 1.869.54 3.708.744 5.569.41 2.144 1.336 1.916 3.202 2.085 2.188.046 4.386.062 6.568.228 7.954.128 15.914-.062 23.868.086 1.234.015 2.463-.043 3.697-.092 1.036.065 2.067.022 3.052-.342 3.16-.886 2.712-4.782 2.75-7.365-.062-1.449.19-2.881.158-4.33.05-1.558.126-3.124.19-4.69a57.152 57.152 0 0 1-.03-2.14c-.024-2.283.035-4.567-.045-6.85l.003.002Zm-40.326 5.78c.412-.511 1.09-.717 1.708-.875 1.848-.23 3.668-.747 5.54-.702 1.376 0 2.736.41 3.967 1.004.769.33 1.521.715 2.335.924.624.118 1.272.053 1.893-.056 1.379-.27 2.514-1.248 3.93-1.411.632-.06 1.248-.097 1.872-.225 1.244-.153 2.36.567 3.402 1.132.937.525 2.049.72 3.06.346 1.16-.335 2.233-.988 3.462-1.058 1.135-.112 2.337.011 3.304.664.268.19.517.458.699.731.34.533-.388 1.192-.881.782-.35.099-.602-.188-.835-.399-1.599-1.448-3.97.447-5.783.57-1.816.592-3.633-.476-5.32-1.044a7.608 7.608 0 0 0-1.692-.348c-.533.241-.913.442-1.392.704-1.136.664-2.46 1.055-3.767 1.154-1.085 0-2.185-.086-3.181-.551-.723-.357-1.454-.793-2.222-1.015-2.324-.916-4.522-.56-6.849.112-.996.273-1.753 1.045-2.797.9-.608-.118-.846-.88-.453-1.35v.011Zm35 13.732c-1.186 1.09-3.105 1.617-4.706 1.368a6.434 6.434 0 0 1-.924-.22 5.595 5.595 0 0 1-.498-.187c-.766.346-1.636.25-2.442.14-.495.04-1.009.04-1.494-.084-.781-.187-1.408-.706-2.008-1.215-1.96-1.055-3.868-2.249-6.184-1.51-2.126.803-4.134 2.503-6.53 2.174-.918-.15-1.802-.511-2.637-.91-1.138-.648-2.297-1.33-3.641-1.398-.747-.016-1.521.024-2.196.372-.495.239-.886.662-1.41.844-.402.15-.879-.15-.873-.592.099-.814.875-1.344 1.536-1.716.959-.552 2.142-.528 3.2-.316 1.065.284 2.107.69 3.068 1.234.65.367 1.381.782 2.094.983 2.115.806 4.136-.434 5.927-1.451 1.813-.938 4.024-.825 5.895-.11 1.141.412 2.08 1.247 3.141 1.804.434.228.83.41 1.31.496.537.179 1.08.23 1.611-.008-.37-.501-.57-1.162-.52-1.786.027-.25.164-.477.314-.678.061-.248.152-.476.31-.685.56-.675 1.537-.97 2.391-.918.836.11 1.596.811 1.778 1.636-.019 1.017-.632 1.973-1.301 2.706.878.038 1.786.046 2.632-.222.318-.112.637-.238.947-.372.158-.118.279-.228.469-.244.525-.216 1.039.418.741.865Zm-.688-5.52c-.524.024-.998-.265-1.352-.506-.436-.268-.883-.56-1.376-.715a4.454 4.454 0 0 0-1.41.045c-.93.212-1.779.659-2.683.943a6.084 6.084 0 0 1-2.597.195c-2.383-.319-4.563-1.657-6.89-2.158-.754-.147-1.533-.294-2.267.014-.835.396-1.646.84-2.522 1.153-2.134.72-4.56.838-6.685.022-1.025.415-2.078.717-3.191.616-.98-.075-1.979-.118-2.927-.4-.455-.192-1.073-.318-.894-.966-.43-.423.003-1.17.587-1.004.278.131.575.198.875.263 1.347.257 2.69.506 4.045.342-1.34-1.946.033-3.36 2.153-3.226 1.665.206 1.724 2.396.683 3.37 2.399.539 2.843.408 4.985-.698 3.75-1.684 5.614-.755 9.167.552 1.505.455 3.191.96 4.736.433 1.127-.396 2.169-1.05 3.373-1.191 1.152-.153 2.33-.1 3.446.23.469.134.926.324 1.333.595 1.026.688.697 2.08-.589 2.085v.006Z"/><path fill="#FFCD85" d="M33.44 36.259c-.046.447-.1 1.02.248 1.36.643-.348 1.502-.881 1.518-1.684-.423-.712-1.344-.086-1.767.326v-.002Z"/><path fill="#000" d="M46.831 19.065c-.04-1.33-.128-2.661-.329-3.981-.34-2.659-2.337-2.924-4.551-3.285-1.219-.1-2.27-.49-3.505-.64-2.961-.361-5.962-.345-8.937-.206h-.035c.083-1.641.102-3.288.035-4.93-.16-1.731-.367-3.597-1.52-4.984-.686-.702-1.73-.822-2.66-.937-.733-.16-1.523-.011-2.264-.1-1.221.017-2.471.006-3.668.274-2.088.23-2.377 2.353-2.356 4.072-.062 1.456-.016 2.916-.102 4.37-.043.864-.037 1.732-.05 2.596-.52-.018-1.037-.085-1.553-.112-1.144 0-2.292.024-3.433.128-1.834.011-3.676-.01-5.504.166-.89.126-1.778-.002-2.664.038-1.143.249-2.276.878-3.05 1.764-.46.683-.441 1.558-.532 2.348-.035.359-.051.718-.065 1.076a14.5 14.5 0 0 0-.016.474c0 .067-.005.134-.005.198-.096 1.494-.075 2.988-.016 4.48-.003.38-.006.76-.006 1.14.051.975.113 1.95.156 2.926.021 1.331.021 2.664.018 3.995v.161c0 1.212-.005 2.425.014 3.638.01.319.016.637.019.956a24.76 24.76 0 0 0-.011 1.727c-.032 1.951-.088 3.906.185 5.841.15 1.369.835 2.806 2.133 3.406.812.305 1.7.353 2.56.412.942 0 1.877-.144 2.814-.225 2.634-.072 5.271.12 7.906.185 4.233.008 8.463.054 12.693.188 3.63.045 7.26-.073 10.888.002 1.564.032 3.181.006 4.704-.385 1.438-.538 2.073-2.107 2.49-3.473.488-2.39.266-4.867.332-7.295.057-2.44 0-4.876-.045-7.315.131-2.9.147-5.807-.075-8.701l.005.008ZM18.52 7.772c.043-.918.107-1.831.152-2.747-.029-.94.12-1.855.466-2.73.225-.3.576-.49.93-.595.414.008.835.094 1.244-.024.742-.126 1.63-.498 2.367-.321.182.045.375.01.522-.102.455 0 .908.134 1.366.166.995-.016 1.686.82 2.152 1.606.294 1.315.447 2.664.578 4.003.134 2.82-.168 5.633-.415 8.433-.147.654-.318 1.363-.929 1.735-1.108.437-2.3.281-3.456.431-1.16 0-2.086-.329-3.22-.45-.547-.246-1.203-.275-1.685-.653-.115-.273-.118-.594-.16-.889-.003-1.721-.091-3.44-.102-5.161.083-.9.139-1.802.187-2.704l.003.002ZM45.506 32.65c.032 1.448-.222 2.88-.158 4.329-.04 2.584.407 6.479-2.75 7.365-.985.364-2.015.404-3.052.343-1.231.048-2.463.107-3.697.09-7.954-.146-15.914.041-23.868-.085-2.182-.166-4.38-.182-6.568-.227-1.866-.166-2.792.061-3.202-2.086-.203-1.86-.607-3.697-.744-5.569-.01-.134-.01-.265-.016-.399v-1.336c.013-.439.032-.878.046-1.317.013-1.606-.129-3.213-.027-4.82.005-.85-.019-1.7-.048-2.548-.014-1.494-.102-2.985-.161-4.476a42.7 42.7 0 0 1 .027-2.552c.027-.677-.016-1.36-.014-2.037l.024-.694c.04-.53.134-1.052.34-1.563.287-.905 1.21-1.232 2.043-1.537.57-.193 1.178-.225 1.775-.23a49.059 49.059 0 0 0 2.74-.257c1.472-.287 2.971-.26 4.465-.35 1.414-.068 3.352-.212 4.107 1.263a.914.914 0 0 0 .086.254c.024.458.072.916.166 1.37.168.673.214 1.428.698 1.96.702.847 1.915.94 2.932 1.085.924.244 1.904.198 2.851.217.6.112 1.197.032 1.794-.067.533-.043 1.066-.078 1.582-.236 1.607-.297 2.142-1.534 2.225-3.028.089-.779.166-1.56.23-2.342a.673.673 0 0 0 .292-.236c.434-.308.988-.393 1.497-.514 1.997-.41 4.01.075 5.997.316 2.386.396 7.65.64 8.18 3.582.144.881.248 1.767.326 2.653.08 2.281.021 4.568.045 6.852-.005.714.011 1.427.03 2.139-.062 1.569-.14 3.132-.19 4.69l-.003-.002Z"/><path fill="#000" d="M5.745 26.093c1.045.145 1.802-.627 2.798-.9 2.324-.672 4.525-1.028 6.849-.112.768.222 1.5.659 2.222 1.015.996.465 2.094.551 3.18.551 1.307-.099 2.632-.49 3.767-1.154.48-.265.86-.466 1.393-.704.605.064 1.087.147 1.692.348 1.686.565 3.502 1.633 5.32 1.044 1.812-.123 4.184-2.018 5.782-.57.233.212.488.5.836.399.495.41 1.22-.249.88-.782a2.88 2.88 0 0 0-.698-.73c-.967-.654-2.169-.774-3.304-.665-1.229.07-2.302.72-3.462 1.058-1.012.375-2.123.177-3.06-.345-1.041-.565-2.158-1.286-3.403-1.133-.623.128-1.24.166-1.871.225-1.414.163-2.552 1.14-3.93 1.41-.622.11-1.27.175-1.893.057-.814-.206-1.566-.594-2.335-.924-1.231-.597-2.591-1.004-3.967-1.004-1.875-.045-3.693.472-5.54.702-.616.155-1.293.361-1.708.875-.394.469-.155 1.23.452 1.35v-.011ZM40.192 30.87a4.768 4.768 0 0 0-1.334-.595c-1.119-.33-2.294-.383-3.445-.23-1.208.141-2.247.792-3.374 1.191-1.545.527-3.231.021-4.736-.434-3.553-1.306-5.416-2.238-9.167-.551-2.144 1.105-2.586 1.234-4.985.699 1.041-.975.982-3.165-.683-3.371-2.118-.134-3.494 1.28-2.152 3.226-1.355.163-2.7-.086-4.046-.343-.3-.064-.597-.13-.875-.262-.584-.166-1.018.58-.587 1.004-.179.648.44.774.895.966.945.282 1.943.324 2.926.4 1.114.101 2.166-.202 3.191-.617 2.123.817 4.549.7 6.686-.02.875-.314 1.686-.761 2.521-1.155.734-.308 1.513-.16 2.268-.013 2.33.5 4.509 1.84 6.889 2.158a6.169 6.169 0 0 0 2.597-.196c.905-.286 1.754-.733 2.683-.942a4.534 4.534 0 0 1 1.41-.046c.49.156.938.448 1.377.715.35.241.824.53 1.352.506 1.282-.008 1.611-1.397.589-2.085v-.006Zm-28.39-.501a3.376 3.376 0 0 1-.718-.678c.027-.506.415-.923.942-.846.514.356.244 1.2-.227 1.524h.003ZM39.552 37.61c-.19.017-.31.13-.469.244-.31.134-.629.26-.948.373-.846.27-1.753.26-2.631.222.669-.734 1.282-1.69 1.3-2.707-.181-.822-.942-1.523-1.777-1.636-.857-.05-1.831.246-2.39.919a1.875 1.875 0 0 0-.311.685c-.15.2-.287.428-.314.677a2.72 2.72 0 0 0 .52 1.786c-.533.238-1.074.187-1.612.008-.48-.086-.875-.265-1.31-.495-1.06-.557-1.996-1.392-3.14-1.805-1.871-.715-4.082-.827-5.895.11-1.791 1.017-3.813 2.257-5.927 1.451-.713-.2-1.444-.616-2.094-.983a13.031 13.031 0 0 0-3.068-1.234c-1.055-.209-2.239-.233-3.2.316-.664.375-1.437.905-1.537 1.716-.008.442.472.742.873.592.525-.18.913-.605 1.411-.843.675-.348 1.449-.389 2.196-.373 1.344.067 2.506.75 3.64 1.398.836.399 1.72.76 2.638.91 2.396.33 4.404-1.37 6.53-2.174 2.316-.739 4.225.455 6.184 1.51.6.51 1.227 1.031 2.008 1.216.485.12.999.123 1.494.083.806.112 1.676.209 2.442-.14.163.07.33.132.498.188.303.096.61.166.924.22 1.6.249 3.52-.279 4.706-1.369.297-.447-.214-1.084-.741-.864Zm-5.864.009c-.345-.338-.294-.91-.249-1.36.423-.413 1.344-1.036 1.767-.327-.018.803-.878 1.336-1.518 1.684v.003Z"/></g><defs><clipPath id="a"><path fill="#fff" d="M0 0h47v46.242H0z"/></clipPath></defs></svg>